<svg width="3202" height="2000" viewBox="0 0 3202 2000" fill="none" xmlns="http://www.w3.org/2000/svg">
<g clip-path="url(#clip0_461_797)">
<path d="M3202 0H0V2000H3202V0Z" fill="white"/>
<path d="M1988.62 383.822C1481.46 369.352 1587.08 178.389 1126.12 177.936C-144.183 176.687 253.329 1812.66 253.329 1812.66L2855.55 1816.06C3311.37 1367.98 2934.49 410.793 1988.62 383.822Z" fill="#E0E0E0"/>
<path d="M2118.55 1822.07C2125.23 1816.72 2234.75 1604.86 2306.88 1705.03C2306.88 1705.03 2415.07 1337.72 2563.34 1355.08C2711.6 1372.45 2586.04 1644.93 2586.04 1644.93C2586.04 1644.93 2712.93 1592.84 2683.55 1730.41C2683.55 1730.41 2845.17 1701.03 2833.15 1817.23L2118.55 1822.07Z" fill="#3F9896"/>
<path d="M2772.08 1509.85C2791.85 1486 2797.52 1458.07 2784.74 1447.48C2771.96 1436.89 2745.58 1447.64 2725.8 1471.49C2706.03 1495.34 2700.36 1523.27 2713.14 1533.86C2725.92 1544.45 2752.3 1533.7 2772.08 1509.85Z" fill="#3F9896"/>
<path d="M2755.87 1565.31C2744.17 1579.43 2740.81 1595.96 2748.37 1602.23C2755.94 1608.5 2771.56 1602.13 2783.27 1588.01C2794.97 1573.89 2798.33 1557.36 2790.76 1551.09C2783.2 1544.82 2767.58 1551.18 2755.87 1565.31Z" fill="#3F9896"/>
<path d="M2580.17 1671.79C2579.79 1671.71 2579.44 1671.48 2579.21 1671.13C2578.74 1670.42 2578.93 1669.46 2579.64 1668.98C2580.93 1668.12 2611.69 1647.84 2638.68 1653.69C2638.69 1653.69 2638.69 1653.69 2638.7 1653.69C2639.53 1653.88 2640.07 1654.7 2639.88 1655.54C2639.7 1656.38 2638.88 1656.91 2638.04 1656.73C2638.04 1656.72 2638.03 1656.72 2638.02 1656.72C2612.33 1651.15 2581.67 1671.36 2581.36 1671.56C2581 1671.8 2580.57 1671.87 2580.17 1671.79Z" fill="black"/>
<path d="M2600.84 1674.11C2600.46 1674.02 2600.11 1673.8 2599.88 1673.45C2599.4 1672.73 2599.6 1671.77 2600.31 1671.3C2600.91 1670.9 2615.11 1661.71 2640.33 1663.28C2641.19 1663.33 2641.84 1664.07 2641.79 1664.92C2641.73 1665.78 2641 1666.43 2640.14 1666.38C2615.95 1664.87 2602.16 1673.79 2602.03 1673.88C2601.66 1674.13 2601.24 1674.19 2600.84 1674.11Z" fill="black"/>
<path d="M2215.67 1734.1C2215.28 1734.1 2214.89 1733.95 2214.59 1733.66C2213.98 1733.07 2213.96 1732.09 2214.55 1731.47C2215.64 1730.35 2241.39 1704.01 2269.01 1704.01C2269.91 1704.03 2270.58 1704.7 2270.58 1705.56C2270.58 1706.42 2269.89 1707.11 2269.03 1707.11C2269.03 1707.11 2269.02 1707.11 2269.01 1707.11C2242.7 1707.11 2217.04 1733.36 2216.79 1733.62C2216.48 1733.94 2216.08 1734.1 2215.67 1734.1Z" fill="black"/>
<path d="M2236.36 1731.98C2235.97 1731.98 2235.58 1731.83 2235.28 1731.54C2234.67 1730.94 2234.65 1729.96 2235.25 1729.35C2235.75 1728.84 2247.68 1716.84 2272.66 1713.03C2273.52 1712.9 2274.3 1713.48 2274.43 1714.32C2274.56 1715.17 2273.97 1715.96 2273.13 1716.09C2249.25 1719.74 2237.59 1731.4 2237.47 1731.51C2237.17 1731.82 2236.77 1731.98 2236.36 1731.98Z" fill="black"/>
<path d="M766.917 1822.06C761.566 1817.78 673.809 1648.03 616.018 1728.3C616.018 1728.3 529.332 1433.99 410.539 1447.9C291.746 1461.82 392.345 1680.14 392.345 1680.14C392.345 1680.14 290.676 1638.4 314.22 1748.63C314.22 1748.63 184.725 1725.09 194.357 1818.19L766.917 1822.06Z" fill="#3F9896"/>
<path d="M397.049 1701.66C397.353 1701.59 397.633 1701.41 397.819 1701.13C398.2 1700.56 398.047 1699.79 397.476 1699.41C396.438 1698.72 371.796 1682.47 350.169 1687.16C350.164 1687.16 350.162 1687.16 350.156 1687.16C349.485 1687.31 349.06 1687.97 349.206 1688.64C349.352 1689.31 350.014 1689.74 350.684 1689.59C350.686 1689.59 350.691 1689.59 350.696 1689.59C371.284 1685.12 395.85 1701.31 396.095 1701.48C396.387 1701.67 396.731 1701.73 397.049 1701.66Z" fill="black"/>
<path d="M380.488 1703.52C380.794 1703.45 381.075 1703.27 381.261 1702.99C381.64 1702.42 381.483 1701.64 380.911 1701.26C380.436 1700.95 369.055 1693.58 348.847 1694.84C348.157 1694.88 347.641 1695.47 347.684 1696.16C347.727 1696.84 348.317 1697.36 349.001 1697.32C368.386 1696.12 379.43 1703.27 379.539 1703.34C379.829 1703.53 380.171 1703.58 380.488 1703.52Z" fill="black"/>
<path d="M689.099 1751.58C689.41 1751.58 689.721 1751.47 689.963 1751.23C690.457 1750.76 690.47 1749.97 689.994 1749.48C689.126 1748.58 668.49 1727.47 646.359 1727.47C645.644 1727.49 645.103 1728.03 645.103 1728.72C645.103 1729.4 645.66 1729.96 646.346 1729.96C646.346 1729.96 646.354 1729.96 646.359 1729.96C667.446 1729.96 688 1750.99 688.205 1751.2C688.449 1751.46 688.774 1751.58 689.099 1751.58Z" fill="black"/>
<path d="M672.519 1749.89C672.832 1749.89 673.145 1749.77 673.387 1749.53C673.877 1749.06 673.888 1748.27 673.409 1747.78C673.012 1747.37 663.452 1737.76 643.437 1734.7C642.748 1734.6 642.124 1735.06 642.021 1735.74C641.917 1736.42 642.384 1737.06 643.062 1737.16C662.195 1740.08 671.539 1749.42 671.63 1749.51C671.874 1749.76 672.196 1749.89 672.519 1749.89Z" fill="black"/>
<path d="M2215.06 1121.35L1521.18 1815.23V1815.88H2510.95C2507.89 1544 2395.22 1298.46 2215.06 1121.35Z" fill="#90DDB8"/>
<path d="M532.08 1815.87H1521.19V1815.23L827.636 1121.67C647.67 1298.76 535.14 1544.17 532.08 1815.87Z" fill="#FF0000"/>
<path d="M1521.19 1815.23V837.412C1251 837.588 1006.15 946.01 827.638 1121.67L1521.19 1815.23Z" fill="#F99C50"/>
<path d="M1521.18 1815.23L2215.06 1121.35C2036.44 945.738 1791.46 837.411 1521.18 837.411V1815.23Z" fill="#6EAFEA"/>
<path opacity="0.3" d="M2214.41 1121.35L2127.94 1207.81C2141.26 1220.32 2154.23 1233.24 2166.85 1246.55C2308.61 1396.01 2387.29 1594.23 2415.82 1815.87H2510.3C2507.24 1544 2394.57 1298.46 2214.41 1121.35Z" fill="#90DDB8"/>
<path opacity="0.3" d="M531.432 1815.87H638.295C666.794 1594.39 731.668 1396.3 873.27 1246.87C886.085 1233.34 899.275 1220.21 912.809 1207.49L826.988 1121.67C647.021 1298.76 534.491 1544.17 531.432 1815.87Z" fill="#FF0000"/>
<path opacity="0.3" d="M912.809 1207.49C1075.01 1055.15 1287.42 962.772 1519.94 962.611H1520.55V837.412C1250.36 837.588 1005.5 946.01 826.988 1121.67L912.809 1207.49Z" fill="#FECC86"/>
<path opacity="0.3" d="M1520.53 962.611C1753.19 962.787 1965.7 1055.28 2127.94 1207.81L2214.41 1121.35C2035.79 945.739 1790.81 837.412 1520.53 837.412V962.611H1520.53Z" fill="#6EAFEA"/>
<path d="M798.918 1685.16C802.554 1670.98 802.332 1659.64 798.248 1651.13C794.165 1642.62 786.157 1636.84 774.222 1633.78C762.289 1630.72 752.47 1631.93 744.766 1637.42C737.063 1642.9 731.393 1652.73 727.756 1666.91L722.12 1688.89L853.367 1722.55L856.822 1709.08L796.737 1693.67L798.918 1685.16ZM788.591 1679.4L785.659 1690.83L737.804 1678.56L740.735 1667.13C743.008 1658.26 746.71 1652.12 751.842 1648.68C756.974 1645.24 763.588 1644.56 771.681 1646.63C779.539 1648.65 784.886 1652.41 787.722 1657.92C790.559 1663.44 790.848 1670.59 788.591 1679.4Z" fill="white"/>
<path d="M831.433 1556.31C809.459 1549.13 791.848 1546.72 778.602 1549.07C765.357 1551.42 756.831 1558.42 753.026 1570.07C749.203 1581.78 751.941 1592.46 761.239 1602.1C770.539 1611.75 786.204 1620.17 808.236 1627.36C830.211 1634.53 847.841 1636.99 861.126 1634.71C874.411 1632.44 882.965 1625.45 886.788 1613.74C890.593 1602.08 887.812 1591.39 878.444 1581.66C869.079 1571.93 853.408 1563.48 831.433 1556.31ZM874.612 1609.76C872.132 1617.36 865.817 1621.37 855.664 1621.81C845.512 1622.25 830.203 1619.13 809.734 1612.45C791.877 1606.62 779.34 1600.6 772.126 1594.4C764.913 1588.19 762.517 1581.38 764.94 1573.96C767.363 1566.54 773.529 1562.54 783.44 1561.95C793.35 1561.37 807.815 1564.18 826.832 1570.39C845.966 1576.64 859.317 1582.91 866.889 1589.2C874.461 1595.49 877.035 1602.34 874.612 1609.76Z" fill="white"/>
<path d="M865.882 1470.23C844.489 1461.48 827.1 1457.79 813.718 1459.17C800.337 1460.55 791.324 1466.91 786.682 1478.26C782.016 1489.66 783.969 1500.51 792.541 1510.81C801.114 1521.1 816.126 1530.64 837.577 1539.41C858.972 1548.17 876.376 1551.9 889.791 1550.6C903.207 1549.3 912.245 1542.95 916.911 1531.54C921.553 1520.2 919.559 1509.33 910.924 1498.94C902.292 1488.56 887.277 1478.99 865.882 1470.23ZM905.057 1526.69C902.031 1534.09 895.441 1537.64 885.283 1537.33C875.126 1537.03 860.084 1532.81 840.156 1524.65C822.77 1517.54 810.706 1510.63 803.963 1503.91C797.22 1497.2 795.327 1490.23 798.283 1483.01C801.239 1475.78 807.679 1472.24 817.606 1472.38C827.532 1472.52 841.755 1476.38 860.27 1483.95C878.899 1491.57 891.759 1498.8 898.853 1505.62C905.946 1512.44 908.013 1519.47 905.057 1526.69Z" fill="white"/>
<path d="M893.791 1388.34C890.494 1382.57 885.144 1377.81 877.744 1374.06C867.08 1368.66 857.489 1367.85 848.973 1371.64C840.457 1375.43 832.878 1383.88 826.236 1397L815.076 1419.03L935.952 1480.25L942.235 1467.85L885.103 1438.91L887.542 1434.09C888.341 1432.52 889.182 1430.79 890.065 1428.91C890.948 1427.04 892.175 1424.41 893.747 1421.03L960.424 1431.93L967.203 1418.55L897.047 1407.83C898.175 1400.61 897.09 1394.12 893.791 1388.34ZM879.498 1422.84L874.166 1433.37L832.051 1412.04L837.383 1401.51C841.627 1393.13 846.531 1387.77 852.093 1385.43C857.656 1383.08 863.975 1383.7 871.048 1387.29C878.067 1390.84 882.277 1395.59 883.679 1401.53C885.08 1407.47 883.686 1414.57 879.498 1422.84Z" fill="white"/>
<path d="M2175.11 1372.66C2161.82 1371.55 2143.85 1375.92 2121.2 1385.77C2100.22 1394.89 2085.77 1404.68 2077.85 1415.14C2069.93 1425.61 2068.54 1436.74 2073.67 1448.54C2075.69 1453.18 2078.24 1456.91 2081.32 1459.73C2084.41 1462.54 2088.21 1464.63 2092.73 1465.99L2086.1 1470.47L2090 1479.45L2148.23 1454.13L2135.13 1424.01L2123.97 1428.86L2131.81 1446.9L2117.22 1453.25C2109.89 1456.44 2103.42 1457.3 2097.8 1455.86C2092.18 1454.41 2088.13 1450.83 2085.65 1445.13C2082.1 1436.96 2083.63 1429.21 2090.26 1421.87C2096.88 1414.54 2109.25 1406.93 2127.37 1399.05C2147.17 1390.44 2162 1386.03 2171.84 1385.8C2181.69 1385.58 2188.31 1389.38 2191.72 1397.21C2194.15 1402.81 2193.69 1408.21 2190.33 1413.43C2186.98 1418.64 2180.87 1423.44 2172.01 1427.83L2177.37 1440.16C2189.5 1434.89 2197.84 1428.01 2202.36 1419.52C2206.88 1411.03 2207.08 1402.04 2202.95 1392.53C2197.67 1380.39 2188.39 1373.77 2175.11 1372.66Z" fill="white"/>
<path d="M2211.73 1460.98C2198.47 1459.04 2180.93 1461.97 2159.1 1469.76C2137.33 1477.53 2121.89 1486.38 2112.77 1496.31C2103.65 1506.23 2101.17 1517 2105.31 1528.6C2109.43 1540.15 2118.17 1546.9 2131.54 1548.87C2144.9 1550.83 2162.47 1547.93 2184.24 1540.15C2206 1532.38 2221.41 1523.51 2230.45 1513.55C2239.49 1503.58 2241.95 1492.83 2237.82 1481.29C2233.68 1469.68 2224.98 1462.91 2211.73 1460.98ZM2218.74 1506.32C2211.25 1512.84 2198.09 1519.47 2179.25 1526.19C2160.3 1532.96 2145.9 1536.17 2136.06 1535.83C2126.23 1535.49 2120 1531.65 2117.37 1524.29C2114.68 1516.77 2117.22 1509.73 2124.98 1503.17C2132.75 1496.61 2146.76 1489.71 2167.04 1482.47C2184.73 1476.15 2198.33 1473.24 2207.83 1473.73C2217.33 1474.23 2223.39 1478.15 2226.02 1485.5C2228.65 1492.85 2226.22 1499.79 2218.74 1506.32Z" fill="white"/>
<path d="M2242.85 1552.41C2229.77 1549.51 2212.06 1551.14 2189.72 1557.31C2167.44 1563.47 2151.39 1571.16 2141.57 1580.39C2131.75 1589.62 2128.48 1600.18 2131.76 1612.05C2135.02 1623.87 2143.25 1631.25 2156.43 1634.18C2169.61 1637.12 2187.34 1635.52 2209.63 1629.36C2231.91 1623.2 2247.92 1615.49 2257.67 1606.22C2267.41 1596.94 2270.65 1586.4 2267.39 1574.58C2264.11 1562.7 2255.93 1555.31 2242.85 1552.41ZM2246.51 1598.14C2238.58 1604.1 2224.96 1609.75 2205.68 1615.07C2186.28 1620.43 2171.69 1622.58 2161.9 1621.52C2152.12 1620.46 2146.18 1616.16 2144.1 1608.64C2141.98 1600.94 2145.02 1594.1 2153.24 1588.13C2161.47 1582.16 2175.95 1576.3 2196.71 1570.57C2214.81 1565.57 2228.59 1563.66 2238.03 1564.85C2247.47 1566.04 2253.23 1570.39 2255.31 1577.92C2257.39 1585.44 2254.45 1592.19 2246.51 1598.14Z" fill="white"/>
<path d="M2281.35 1639.75L2148.22 1664.92L2152.89 1689.64C2155.82 1705.1 2163.2 1715.33 2175.04 1720.32C2186.87 1725.31 2204.54 1725.59 2228.03 1721.15C2251.28 1716.75 2267.49 1710.07 2276.66 1701.11C2285.83 1692.14 2288.95 1679.93 2286.03 1664.47L2281.35 1639.75ZM2267.05 1691.89C2260.06 1698.43 2246.35 1703.63 2225.91 1707.49C2205.18 1711.41 2190.33 1711.59 2181.37 1708.04C2172.41 1704.49 2166.74 1696.42 2164.37 1683.83C2164.22 1683.06 2164.08 1682.15 2163.94 1681.12C2163.81 1680.09 2163.64 1678.51 2163.42 1676.38L2272.11 1655.83C2272.68 1657.9 2273.1 1659.45 2273.36 1660.48C2273.61 1661.52 2273.82 1662.46 2273.98 1663.3C2276.35 1675.82 2274.04 1685.36 2267.05 1691.89Z" fill="white"/>
<path d="M1521.19 1696.07C1521.19 1696.07 1521.18 1696.07 1521.18 1696.07C1519.88 1696.02 1518.58 1696 1517.28 1696C1485.34 1696 1456.3 1708.49 1434.82 1728.86C1411.77 1750.71 1397.4 1781.62 1397.4 1815.87H1637.15C1637.15 1783.6 1624.39 1754.3 1603.65 1732.75C1582.68 1710.97 1553.56 1697.1 1521.19 1696.07Z" fill="#49263E"/>
<path d="M1489.33 1811.19L1544.67 1783.52L1691.76 890.241L1451.62 1750.86L1489.33 1811.19Z" fill="#49263E"/>
<path d="M1002.86 1716.14C1001.62 1716.45 974.754 1725.42 974.754 1725.42C974.754 1725.42 967.389 1738.54 967.701 1743.83C968.012 1749.12 970.813 1761.57 976.414 1764.99C982.015 1768.42 982.949 1770.91 987.927 1769.04C992.906 1767.17 1001.03 1762.47 1001.03 1762.47L1035.54 1725.14C1035.54 1725.14 1004.11 1715.83 1002.86 1716.14Z" fill="#FFB294"/>
<path d="M1242.21 1788.55L1242.36 1801.12L1287.46 1800.97L1312.33 1747.8L1259.95 1741.91L1242.21 1788.55Z" fill="#FFB294"/>
<path d="M1355.3 1804.68H1347.44L1310.95 1782.95L1291.01 1804.68H1241.8C1240.58 1804.68 1239.58 1805.67 1239.58 1806.9V1814.35C1239.58 1815.19 1240.26 1815.87 1241.1 1815.87H1355.5C1358.96 1815.87 1361.68 1812.75 1361 1809.17C1360.49 1806.51 1358.01 1804.68 1355.3 1804.68Z" fill="#FEC786"/>
<path d="M1340.82 1794.77L1299.05 1776.24C1282.22 1792.62 1263.14 1779.08 1263.14 1779.08C1250.52 1773.39 1242.24 1784.54 1242.24 1784.54V1804.74H1355.37C1352.27 1798.6 1340.82 1794.77 1340.82 1794.77Z" fill="#3AA1C9"/>
<path d="M1242.66 1784.54H1241.82V1804.64H1242.66V1784.54Z" fill="black"/>
<path d="M1263.38 1778.74L1262.9 1779.43C1269.62 1784.05 1276.59 1784.76 1280.24 1784.76C1281.84 1784.76 1282.81 1784.62 1282.84 1784.62L1282.71 1783.79C1282.62 1783.8 1272.76 1785.19 1263.38 1778.74Z" fill="black"/>
<path d="M1247.54 1796.78L1247.07 1797.47L1252.41 1801.07L1252.87 1800.38L1247.54 1796.78Z" fill="black"/>
<path d="M1251.36 1795.68L1250.9 1796.37L1256.23 1799.97L1256.7 1799.27L1251.36 1795.68Z" fill="black"/>
<path d="M1355.51 1804.29H1242.39C1240.61 1804.29 1239.16 1805.74 1239.16 1807.52V1813.1H1240V1807.52C1240 1806.2 1241.07 1805.13 1242.39 1805.13H1355.51C1358.36 1805.13 1360.69 1807.46 1360.69 1810.31C1360.69 1811.84 1360.02 1813.28 1358.86 1814.27L1359.4 1814.9C1360.75 1813.76 1361.52 1812.08 1361.52 1810.31C1361.52 1806.99 1358.82 1804.29 1355.51 1804.29Z" fill="black"/>
<path d="M1344.95 1795.99C1336.54 1792.41 1299.59 1776.02 1299.22 1775.85L1298.88 1776.62C1299.25 1776.78 1336.21 1793.18 1344.62 1796.77C1352.85 1800.27 1355.11 1804.85 1355.13 1804.89L1355.89 1804.54C1355.79 1804.34 1353.5 1799.64 1344.95 1795.99Z" fill="black"/>
<path d="M1344.3 1371.03L1233.16 1403.13V1437.71C1233.16 1437.71 1311.76 1506.35 1377.11 1523.78L1250.64 1744.17C1250.64 1744.17 1276.99 1772.39 1320.76 1772.39C1320.76 1772.39 1493.72 1520.33 1493.77 1490.85C1493.82 1469.74 1344.3 1371.03 1344.3 1371.03Z" fill="#3D1F35"/>
<path d="M1213.29 1299.4L966.314 1716.79C993.481 1740.87 1033.62 1756.93 1033.62 1756.93C1033.62 1756.93 1068.19 1706.3 1124.38 1619.86C1180.57 1533.41 1233.67 1495.75 1279.36 1453.77C1325.05 1411.78 1353.45 1371.03 1353.45 1371.03L1286.34 1294.81L1213.29 1299.4Z" fill="#49263E"/>
<path d="M1023.02 1796.26C1011.18 1790 1008.31 1790.82 997.06 1786.54L1001.03 1762.47C977.45 1755.54 975.219 1725.14 975.219 1725.14L953.833 1727.71C950.009 1728.16 947.63 1732.09 948.994 1735.69L976.275 1807.73H1023.02C1023.02 1807.73 1029.61 1799.74 1023.02 1796.26Z" fill="#3AA1C9"/>
<path d="M1024.19 1809.33C1023.64 1808.32 1022.56 1807.72 1021.41 1807.72H981.03C978.17 1807.72 975.608 1805.96 974.595 1803.28L948.546 1733.59C948.126 1732.48 947.134 1731.61 945.948 1731.54C945.293 1731.51 944.785 1731.68 944.392 1731.95C943.449 1732.59 943.149 1733.85 943.522 1734.93L969.33 1809.72C970.447 1812.9 973.45 1815.03 976.821 1815.03H1021.75C1023.98 1815.03 1025.4 1813.24 1024.88 1811.08C1024.72 1810.41 1024.46 1809.82 1024.19 1809.33Z" fill="#FEC786"/>
<path d="M1024.63 1809.09C1024 1807.94 1022.76 1807.23 1021.41 1807.23H981.03C978.393 1807.23 975.994 1805.57 975.061 1803.11L949.011 1733.41C948.495 1732.05 947.303 1731.12 945.977 1731.05C945.263 1730.99 944.645 1731.17 944.111 1731.54C943.021 1732.28 942.586 1733.74 943.051 1735.1L943.992 1734.77C943.677 1733.86 943.963 1732.84 944.674 1732.36C945.021 1732.12 945.435 1732.01 945.919 1732.04C946.855 1732.1 947.703 1732.77 948.079 1733.76L974.129 1803.46C975.209 1806.31 977.982 1808.22 981.03 1808.22H1021.41C1022.4 1808.22 1023.3 1808.74 1023.75 1809.57C1024.05 1810.1 1024.26 1810.65 1024.39 1811.19C1024.61 1812.09 1024.46 1812.92 1023.96 1813.55C1023.46 1814.18 1022.68 1814.53 1021.75 1814.53V1815.52C1022.99 1815.52 1024.05 1815.04 1024.74 1814.16C1025.43 1813.29 1025.65 1812.15 1025.36 1810.96C1025.21 1810.33 1024.96 1809.7 1024.63 1809.09Z" fill="#1D1D1B"/>
<path d="M980.906 1735.2L979.739 1732.87L977.853 1728.44L975.245 1725.42L971.426 1732.26C971.426 1732.26 977.814 1746.27 977.892 1746.34C977.97 1746.42 979.234 1749.63 979.234 1749.63L982.735 1747.63L982.852 1744.81L981.821 1739.4L980.906 1735.2Z" fill="#3AA1C9"/>
<path d="M983.893 1753.06C983.893 1753.06 985.678 1757.26 987.733 1758.5L990.446 1760.07L995.48 1761.77L1000.18 1762.36L1000.38 1759.88L982.851 1746.87L983.893 1753.06Z" fill="#FE9F73"/>
<path d="M996.935 1787.02C997.164 1787.08 1019.98 1793.09 1024.62 1798.18L1025.36 1797.52C1020.52 1792.2 998.138 1786.31 997.187 1786.06L996.935 1787.02Z" fill="#1D1D1B"/>
<path d="M983.407 1748.21C981.966 1729.46 975.769 1724.92 975.506 1724.73L974.933 1725.55C974.994 1725.59 981.016 1730.1 982.414 1748.29C983.365 1760.66 993.127 1761.94 1000.25 1762.87L1000.46 1762.9L996.603 1786.26L989.399 1791.46L989.982 1792.26L997.518 1786.82L1001.61 1762.04L1000.38 1761.88C993.216 1760.95 984.296 1759.78 983.407 1748.21Z" fill="#1D1D1B"/>
<path d="M1397.43 909.367C1381.57 897.798 1358.97 900.136 1358.97 900.136C1358.97 900.136 1348.57 908.578 1347.49 909.607C1346.41 910.636 1356.32 909.211 1356.32 909.211L1403.81 949.423L1407.08 938.8C1410.43 927.937 1406.62 916.066 1397.43 909.367Z" fill="#FFB294"/>
<path d="M1336.74 956.734L1332.89 970.976C1332.89 970.976 1320.04 998.421 1319.52 1004.84C1319.01 1011.25 1323.98 1025.93 1339.98 1030.86C1345.03 1032.42 1349.75 1032.93 1353.84 1032.9C1362.21 1032.83 1362.7 1051.84 1364.18 1043.6L1374.74 996.298C1389.36 998.616 1393.63 982.403 1393.63 982.403L1407.45 937.604L1355.4 902.693L1336.74 956.734Z" fill="#FFB294"/>
<path d="M1363.63 945.613C1363.34 945.859 1363.29 946.298 1363.54 946.595C1363.66 946.74 1363.82 946.824 1364 946.845C1364.18 946.866 1364.37 946.816 1364.52 946.69C1364.92 946.364 1374.31 938.776 1381.31 945.894C1381.58 946.17 1382.02 946.174 1382.3 945.903C1382.57 945.633 1382.58 945.191 1382.31 944.917C1374.41 936.881 1363.74 945.524 1363.63 945.613Z" fill="#4C222E"/>
<path d="M1395.78 946.159C1395.39 946.151 1395.07 946.457 1395.06 946.842C1395.06 947.053 1395.15 947.244 1395.29 947.375C1395.41 947.484 1395.57 947.551 1395.75 947.555C1395.83 947.557 1403.67 947.771 1404.23 952.079C1404.28 952.462 1404.62 952.733 1405.01 952.683C1405.39 952.634 1405.66 952.285 1405.61 951.902C1404.91 946.402 1396.15 946.166 1395.78 946.159Z" fill="#4C222E"/>
<path d="M1373.56 951.047C1372.45 950.706 1371.28 951.326 1370.94 952.431C1370.6 953.536 1371.22 954.708 1372.33 955.049C1373.43 955.39 1374.6 954.77 1374.94 953.665C1375.28 952.56 1374.66 951.388 1373.56 951.047Z" fill="black"/>
<path d="M1395.44 955.604C1394.34 955.263 1393.17 955.883 1392.83 956.988C1392.49 958.093 1393.1 959.265 1394.21 959.606C1395.31 959.947 1396.49 959.327 1396.83 958.222C1397.17 957.117 1396.55 955.945 1395.44 955.604Z" fill="black"/>
<path d="M1333.63 906.896C1324.76 920.392 1329.67 930.485 1328.45 934.95C1327.24 939.414 1315.06 968.28 1336.66 972.505L1357.48 925.041L1356.24 903.206L1359.19 899.438C1359.19 899.438 1342.49 893.4 1333.63 906.896Z" fill="#33192C"/>
<path d="M1350.33 932.169C1343.7 930.125 1336.67 933.842 1334.62 940.472C1332.58 947.102 1336.3 954.134 1342.93 956.178C1349.56 958.222 1356.59 954.505 1358.63 947.875C1360.68 941.245 1356.96 934.213 1350.33 932.169Z" fill="#FFB294"/>
<path d="M1342.99 936.933C1342.8 936.938 1342.64 937.097 1342.65 937.289C1342.65 937.482 1342.81 937.636 1343 937.631C1343.04 937.63 1346.26 937.586 1348.23 939.618C1349.13 940.556 1349.64 941.798 1349.74 943.321C1348.75 942.128 1346.67 940.326 1343.5 941.157C1341.36 941.719 1339.95 943.643 1339.92 946.058C1339.89 948.1 1340.98 950.488 1343.47 951.257C1343.49 951.264 1343.52 951.271 1343.54 951.278C1343.73 951.332 1343.92 951.226 1343.97 951.041C1344.03 950.857 1343.92 950.665 1343.74 950.609C1343.72 950.6 1343.7 950.596 1343.67 950.589C1341.38 949.882 1340.59 947.718 1340.62 946.068C1340.64 944.478 1341.46 942.415 1343.68 941.832C1347.7 940.779 1349.7 944.435 1349.78 944.592L1350.37 945.698L1350.44 944.447C1350.56 942.217 1349.98 940.427 1348.73 939.129C1346.54 936.879 1343.13 936.93 1342.99 936.933Z" fill="#F07162"/>
<path d="M1346.46 972.688C1346.46 972.688 1338.07 1001.32 1370.75 1014.2L1374.74 996.298C1374.74 996.298 1351.7 993.967 1346.46 972.688Z" fill="#F07162"/>
<path d="M1388.44 951.836C1388.25 951.804 1388.07 951.932 1388.04 952.122L1385.3 968.506L1377.93 968.655C1377.74 968.659 1377.59 968.818 1377.59 969.011C1377.6 969.165 1377.7 969.294 1377.84 969.337C1377.87 969.348 1377.91 969.353 1377.95 969.352L1385.89 969.192L1388.73 952.237C1388.76 952.048 1388.63 951.864 1388.44 951.836Z" fill="#F07162"/>
<path d="M1331.24 974.551L1338.97 977.648L1345.94 955.034L1340.53 952.684L1331.24 974.551Z" fill="#FFB294"/>
<path d="M1410.93 912.478C1410.93 912.478 1418.41 896.198 1401.46 896.478C1384.51 896.758 1356.18 887.303 1343.76 899.103C1331.33 910.903 1357.26 925.739 1357.26 925.739C1357.26 925.739 1409.17 938.437 1416 927.463C1422.83 916.489 1410.93 912.478 1410.93 912.478Z" fill="#33192C"/>
<path d="M1357.03 915.796C1356.4 915.9 1344.52 917.981 1345.95 918.171C1347.38 918.361 1357.27 922.255 1357.27 922.255L1353.87 933.261C1353.87 933.261 1356.14 941.052 1352.19 948.84C1352.19 948.84 1354.96 950.947 1356.29 948.538C1357.63 946.129 1359.89 927.223 1367.14 925.891C1374.38 924.56 1357.66 915.692 1357.03 915.796Z" fill="#33192C"/>
<path d="M1376.68 978.778C1381.21 980.273 1384.52 975.817 1384.52 975.817C1384.52 975.817 1372.33 971.763 1372.13 971.731C1372.13 971.731 1372.14 977.283 1376.68 978.778Z" fill="#FBFDFC"/>
<path d="M1651.95 1148C1651.95 1148 1656.34 1141.88 1650.43 1138.85C1650.43 1138.85 1655.33 1132.17 1644.97 1129.77C1644.97 1129.77 1645.77 1125.26 1641.11 1123.44C1636.45 1121.62 1624.77 1122.28 1622.88 1123.03C1620.99 1123.79 1598.04 1139.37 1598.04 1139.37C1598.04 1139.37 1573.75 1163.5 1572.15 1164.49L1592.78 1206.65C1602.59 1201.16 1619.12 1190.46 1624.4 1185.11C1624.41 1185.11 1624.41 1185.11 1624.41 1185.1C1624.91 1184.6 1625.31 1184.13 1625.59 1183.73C1625.61 1183.72 1625.63 1183.7 1625.64 1183.68C1625.71 1183.56 1625.78 1183.45 1625.83 1183.35C1626.87 1181.47 1628.28 1179.5 1629.93 1177.52C1634.22 1170.62 1637.77 1162.89 1639.61 1161.01C1641.31 1159.27 1646.23 1158.3 1649.42 1157.83C1652.07 1157.43 1654.24 1155.3 1654.4 1152.62C1654.5 1151.06 1653.95 1149.39 1651.95 1148Z" fill="#FFB294"/>
<path d="M1644.95 1129.13C1644.37 1129.16 1630.57 1129.73 1627.92 1130.48C1625.25 1131.24 1619.5 1134.96 1619.25 1135.12C1618.95 1135.31 1618.86 1135.71 1619.06 1136.01C1619.16 1136.16 1619.32 1136.26 1619.49 1136.29C1619.65 1136.31 1619.82 1136.28 1619.96 1136.19C1620.02 1136.15 1625.79 1132.42 1628.27 1131.72C1630.27 1131.15 1640.08 1130.62 1644.99 1130.42C1645.35 1130.4 1645.63 1130.1 1645.62 1129.75C1645.61 1129.39 1645.31 1129.12 1644.95 1129.13Z" fill="#F07162"/>
<path d="M1650.36 1138.21C1649.85 1138.28 1637.73 1139.82 1634.49 1140.98C1631.25 1142.16 1626.74 1145.21 1626.55 1145.34C1626.26 1145.54 1626.18 1145.94 1626.38 1146.23C1626.48 1146.38 1626.64 1146.48 1626.81 1146.5C1626.97 1146.53 1627.14 1146.5 1627.28 1146.4C1627.33 1146.37 1631.84 1143.3 1634.93 1142.19C1638.02 1141.07 1650.39 1139.51 1650.51 1139.49C1650.87 1139.44 1651.12 1139.12 1651.08 1138.77C1651.04 1138.42 1650.72 1138.17 1650.36 1138.21Z" fill="#F07162"/>
<path d="M1651.89 1147.36C1651.44 1147.4 1640.89 1148.45 1637.61 1149.76C1634.35 1151.05 1631.37 1153.25 1631.24 1153.34C1630.96 1153.56 1630.89 1153.96 1631.11 1154.24C1631.21 1154.38 1631.36 1154.46 1631.52 1154.49C1631.69 1154.52 1631.87 1154.48 1632.02 1154.37C1632.05 1154.35 1634.99 1152.18 1638.09 1150.95C1641.19 1149.71 1651.9 1148.65 1652.01 1148.64C1652.36 1148.6 1652.63 1148.29 1652.6 1147.93C1652.56 1147.58 1652.25 1147.32 1651.89 1147.36Z" fill="#F07162"/>
<path d="M1305.38 1009.12L1370.41 1071.34L1371.29 1031.29L1326.42 985.456L1305.38 1009.12Z" fill="#A5EFED"/>
<path d="M1348.62 1029.05C1324.55 995.717 1297.75 1010.98 1297.75 1010.98C1258.83 1033 1174.79 1354.56 1174.79 1354.56C1174.79 1354.56 1225.65 1351.9 1243.73 1353.24C1295.97 1357.1 1315.5 1401.47 1377.06 1382.37C1377.06 1382.37 1361.24 1294.92 1368.26 1276.25C1370.52 1270.26 1377.42 1226.59 1379.58 1221.93C1367.82 1204.61 1377.58 1154.93 1389.05 1095.44C1373.6 1068.34 1358.05 1042.1 1348.62 1029.05Z" fill="white"/>
<path d="M1367.17 1289.14L1365.85 1289.14C1365.89 1313.34 1375.36 1375.63 1376.33 1381.95C1353.2 1391.5 1323.15 1386 1287.01 1365.61C1254.57 1347.31 1212.54 1352.4 1212.12 1352.46L1212.29 1353.77C1212.7 1353.72 1254.31 1348.68 1286.36 1366.76C1311.22 1380.79 1333.26 1387.82 1352.22 1387.82C1361.3 1387.82 1369.68 1386.21 1377.33 1382.97L1377.8 1382.77L1377.72 1382.26C1377.62 1381.58 1367.22 1314.41 1367.17 1289.14Z" fill="#1D1D1B"/>
<path d="M1434.56 1163.31L1370.07 1062.84L1281.92 1113.05C1281.92 1113.05 1351.57 1226.16 1394.65 1246.92C1437.73 1267.67 1596.74 1206.81 1596.74 1206.81L1593.01 1142.08L1434.56 1163.31Z" fill="white"/>
<path d="M1394.94 1246.32C1352.52 1225.88 1283.18 1113.83 1282.48 1112.7L1281.35 1113.4C1282.05 1114.53 1351.6 1226.91 1394.36 1247.51C1400.79 1250.61 1409.71 1251.93 1420.24 1251.93C1479.91 1251.93 1591.46 1209.55 1596.98 1207.43L1596.51 1206.19C1594.92 1206.8 1437.26 1266.71 1394.94 1246.32Z" fill="#1D1D1B"/>
<path d="M1434.89 1162.6L1369.51 1060.57L1368.39 1061.29L1434.22 1164.03L1570.52 1145.77L1570.34 1144.45L1434.89 1162.6Z" fill="#1D1D1B"/>
<path d="M2427.66 807.198C2427.66 807.198 2435.28 670.035 2331.67 660.949C2212.85 650.529 2211.41 785.284 2211.41 785.284C2211.41 785.284 2157.4 734.012 2118.45 799.016C2118.45 799.016 2051.13 760.107 2017.17 831.971C2016.03 834.387 2015.82 836.909 2016.32 839.23H2476.07C2476.59 833.907 2475.01 828.301 2470.65 823.654C2462.94 815.438 2449.79 808.745 2427.66 807.198Z" fill="white"/>
<path d="M709.736 787.264C680.024 737.681 638.828 776.789 638.828 776.789C638.828 776.789 637.73 674.002 547.093 681.95C468.065 688.88 473.876 793.503 473.876 793.503C457.001 794.684 446.969 799.789 441.087 806.056C437.761 809.6 436.558 813.876 436.95 817.937H787.636C788.019 816.167 787.856 814.243 786.985 812.4C761.084 757.586 709.736 787.264 709.736 787.264Z" fill="white"/>
<path d="M1232.77 378.774C1232.77 378.774 1219.17 336.769 1177.87 344.122C1136.57 351.476 1151.18 412.566 1151.18 412.566C1151.18 412.566 1137.85 409.749 1128.61 416.056C1125.54 418.153 1124.07 421.171 1123.89 424.223H1338.33C1347.1 415.939 1352.55 404.157 1352.26 391.046C1352.01 380.219 1348.13 367.623 1338.08 353.35C1299.39 298.394 1232.12 350.877 1232.77 378.774Z" fill="white"/>
<path d="M2898.26 1812.66H153.518V1822.06H2898.26V1812.66Z" fill="#49263E"/>
</g>
<defs>
<clipPath id="clip0_461_797">
<rect width="3202" height="2000" fill="white"/>
</clipPath>
</defs>
</svg>
